<svg id="Layer_1" data-name="Layer 1" xmlns="http://www.w3.org/2000/svg" viewBox="0 0 146.44 93.44"><defs><style>.cls-1{fill:#101010;}.cls-2{fill:#fafafa;}.cls-3{fill:#dadada;}.cls-4{fill:#c4c4c4;}.cls-5{fill:#fefefe;}</style></defs><title>Sig-01</title><path d="M0,91.94c2.31-3.66,4.63-7.31,6.92-11,1.88-3,3.75-6,5.44-9.15,1.85-3.43,4.6-6.22,6.88-9.35,0.44-.6.92-1.07-0.26-1.38-0.53-.14-0.46-0.62-0.07-0.92,2.07-1.64,3.26-4,5.08-5.88,0.77-.78,1.3-1.81,2.11-2.58,0.31-.29.61-0.79,1-0.08,0.26,0.41.35-.07,0.43-0.17a14.12,14.12,0,0,0,.94-1.24A0.56,0.56,0,0,1,29.37,50c0.34,0.23,0,.52-0.1.72-1.14,1.77-1.93,3.78-3.53,5.24a0.73,0.73,0,0,0-.27.5,4.42,4.42,0,0,1-.71,2.61A19.62,19.62,0,0,0,28,56.35C38.41,43.42,49,30.69,59.71,18c2-2.35,4-4.67,6.1-6.89C69,7.84,71.73,4.16,75,1c0.3-.29.57-0.62,0.85-0.94h0.72a1.16,1.16,0,0,1-.38,1.29,84.61,84.61,0,0,1-5.73,6.6,26.71,26.71,0,0,0-2.65,3.64q-15.26,21-30,42.49A207.3,207.3,0,0,0,26.72,72.2a28.16,28.16,0,0,0-2.67,6.12c-0.1.39-.38,1,0,1.23a1.42,1.42,0,0,0,1.24-.23,19.53,19.53,0,0,0,5.17-3.84c3.31-3.41,6.53-6.91,9.86-10.3,4.95-5,10-10,14.95-15a13.64,13.64,0,0,1,2.64-2.06c0.35-.21.72-0.66,1.16-0.25a1,1,0,0,1,.08,1.23,51.32,51.32,0,0,1-2.84,6.06c-2.16,4-4.26,8.11-6.33,12.2a8.81,8.81,0,0,0-.69,2.28c-0.27,1.35.34,1.95,1.73,1.81a6.26,6.26,0,0,0,2.59-1.16c4.7-2.87,8.57-6.78,12.85-10.17a69.68,69.68,0,0,1,8.05-6,1.06,1.06,0,0,1,1.3-.1,0.83,0.83,0,0,1,0,1.18c-1.44,2.61-2.95,5.16-4.63,7.64-3.11,4.59-6.34,9.1-9.31,13.79a4.65,4.65,0,0,0-.39.74C61.25,78,61.6,78.15,62.14,78s1.17-.5,1.77-0.72a0.9,0.9,0,0,1,1.38,1,15.69,15.69,0,0,1-.77,3.49c-0.13.52-.75,1.12,0,1.61s1.11-.18,1.61-0.45a30.12,30.12,0,0,0,7.23-6.06C83.19,66.24,93.62,56.21,104,46.16,109.31,41,114.62,36,120.27,31.25a42,42,0,0,1,4.41-3.09c1-.62,1.32-0.41,1.34.78,0,0.52,0,1,0,1.56,0,0.33-.09.73-0.48,0.71-1-.06-1.16.69-1.52,1.28C118.74,41.09,112.55,49,106.42,57c-3.14,4.08-6.28,8.17-8.36,12.94-0.25.58-.92,1.23-0.39,1.85s1.29,0.12,1.92,0a16.9,16.9,0,0,0,4.8-2.09,20.42,20.42,0,0,1,5.76-2.58,5.16,5.16,0,0,1,2.13-.16c1.67,0.28,2.35,1.14,2.13,2.83-0.26,2-.57,4-0.81,6.06-0.27,2.25.64,2.94,2.78,2.16a35.27,35.27,0,0,0,6.53-3.49,43.28,43.28,0,0,1,12.43-5.73,22,22,0,0,1,9.61-.13,5,5,0,0,1,.68.23c0.27,0.09.6,0.19,0.53,0.54s-0.46.33-.77,0.27a21.68,21.68,0,0,0-16.47,2.6c-3.61,2-7,4.25-10.74,6a10.51,10.51,0,0,1-3.33.84c-1.82.22-2.71-.9-2.43-2.82s0.55-3.7.8-5.56c0.34-2.6-.79-3.49-3.29-2.61a55.18,55.18,0,0,0-7.14,3.34A11.41,11.41,0,0,1,98,73c-1.36.06-1.89-.41-1.54-1.69A31.27,31.27,0,0,1,98,66.71c0.8-1.76,2.39-2.84,3.29-4.51a37.59,37.59,0,0,1,3.35-4.67c1.18-1.56,2.42-3.08,3.62-4.63s2.38-3,3.5-4.57c4-5.57,8.17-11,11.65-17a4.13,4.13,0,0,0,.3-0.52c0.08-.19.38-0.35,0.16-0.61s-0.49.05-.66,0.17a81.57,81.57,0,0,0-7.82,6.52C104.58,46.77,94.11,57,83.8,67.36c-4.48,4.51-8.61,9.36-13.35,13.6-1.69,1.52-3.42,3-5.78,3.45-1.39.26-1.61,0.07-1.59-1.35a11.65,11.65,0,0,1,.85-3.23A1.32,1.32,0,0,0,64,78.59c-0.36-.43-0.8,0-1.19.12s-1,.39-1.57.58c-0.88.31-1.22-.12-1.18-0.93a5,5,0,0,1,1.06-2.76c2.81-3.83,5.32-7.87,8.12-11.71a53.32,53.32,0,0,0,4.62-7.09C74,56.56,74.4,56.3,74,56a0.7,0.7,0,0,0-.87.19c-0.63.43-1.26,0.85-1.85,1.31C66.79,61,62.43,64.7,58,68.36a17.17,17.17,0,0,1-6.88,4c-1.92.46-2.91-.32-3-2.29a6.21,6.21,0,0,1,.68-3c2.49-5,5.19-9.88,8-14.72a2.69,2.69,0,0,0,.3-2.25,76.15,76.15,0,0,0-6.63,6.12c-6.54,6.57-12.87,13.35-19.31,20a26.67,26.67,0,0,1-4.07,3.34,5.92,5.92,0,0,1-2.06.94c-1.93.44-2.6-.16-2.15-2.08a26.44,26.44,0,0,1,2.8-6.84A306.94,306.94,0,0,1,43.5,43.9q7.1-10,14.08-20.11c0.47-.69,1-1.37,1.42-2.07,0.14-.21.47-0.45,0.16-0.71s-0.53.15-.7,0.34c-2.73,3.13-5.51,6.22-8.17,9.42C38.35,45.11,26.37,59.42,15.4,74.54,12,79.25,8.72,84.09,5.29,88.81a13.8,13.8,0,0,1-3.74,3.83,2.37,2.37,0,0,1-1.52.5v-1.2Z"/><path class="cls-1" d="M30.92,48.75a0.5,0.5,0,0,1-.25-0.7,1.22,1.22,0,0,1,.86-1.15c0.32,0,.27.38,0.22,0.66A1.38,1.38,0,0,1,30.92,48.75Z"/><path class="cls-2" d="M10.82,77.06c1.38-3.31,3.64-6,5.7-8.92a33.26,33.26,0,0,1,5.06-5.88,0.84,0.84,0,0,1,.58-0.38c0.24,0.36-.13.49-0.26,0.68Q16.53,69.84,11.15,77.1A0.22,0.22,0,0,1,10.82,77.06Z"/><path class="cls-3" d="M9.47,79.45a1.54,1.54,0,0,1-.66,1.35A1.35,1.35,0,0,1,9.47,79.45Z"/><path class="cls-4" d="M23.82,60.13a1.29,1.29,0,0,1-.94.91A1.27,1.27,0,0,1,23.82,60.13Z"/><path class="cls-5" d="M10.82,77.06l0.33,0a0.89,0.89,0,0,1-.77.73A1.2,1.2,0,0,1,10.82,77.06Z"/><path class="cls-5" d="M10.33,78.2a0.87,0.87,0,0,1-.46.82,0.34,0.34,0,0,1-.19-0.1A1,1,0,0,1,10.33,78.2Z"/></svg>